# xmcd
#
# Track frame offsets: 
#        150
#        20350
#        42032
#        67150
#        86510
#        108825
#        137077
#        155032
#        175512
#        196007
#
# Disc length: 2941 seconds
#
# Revision: 6
# Processed by: cddbd v1.5.2PL0 Copyright (c) Steve Scherf et al.
# Submitted via: ExactAudioCopyFreeDBPlugin 1.0
#
DISCID=780b7b0a
DTITLE=西脇唯 - いちばんやさしい風はあなたが持っている
DYEAR=1994
DGENRE=New Age
TTITLE0=窓をあけてドアをあけて
TTITLE1=天使のような風の吹く日
TTITLE2=いちばんやさしい風はあなたが持っている (Album Remix)
TTITLE3=KNOCK DOWN
TTITLE4=“彼女”になりたかった日
TTITLE5=出会った頃のように (Album Version)
TTITLE6=ひぐらし
TTITLE7=WISH
TTITLE8=見つめずにはいられない (Album Version)
TTITLE9=あの場所から
EXTD=YEAR: 1994
EXTT0=
EXTT1=
EXTT2=
EXTT3=
EXTT4=
EXTT5=
EXTT6=
EXTT7=
EXTT8=
EXTT9=
PLAYORDER=
